<svg xmlns="http://www.w3.org/2000/svg" xmlns:xlink="http://www.w3.org/1999/xlink" width="500" zoomAndPan="magnify" viewBox="0 0 375 374.999991" height="500" preserveAspectRatio="xMidYMid meet" version="1.0"><defs><clipPath id="a510eb273a"><path d="M 11 17.152344 L 347 17.152344 L 347 365.902344 L 11 365.902344 Z M 11 17.152344 " clip-rule="nonzero"/></clipPath><clipPath id="b81c9a57e4"><path d="M 256 140.070312 L 356.867188 140.070312 L 356.867188 241 L 256 241 Z M 256 140.070312 " clip-rule="nonzero"/></clipPath></defs><path fill="#0c4066" d="M 102.140625 257.132812 L 102.140625 138.089844 C 98.113281 140.972656 89.984375 144.375 82.988281 146.71875 C 78.6875 148.152344 74.25 144.949219 74.25 140.414062 C 74.25 137.574219 76.058594 135.0625 78.75 134.136719 C 87.632812 131.074219 97.105469 125.6875 104.144531 119.601562 C 105.789062 118.183594 107.859375 117.375 110.027344 117.375 C 114.941406 117.375 118.921875 121.359375 118.921875 126.269531 L 118.921875 257.132812 C 118.921875 261.765625 115.167969 265.527344 110.53125 265.527344 C 105.898438 265.527344 102.140625 261.765625 102.140625 257.132812 " fill-opacity="1" fill-rule="nonzero"/><path fill="#0c4066" d="M 171.742188 154.464844 C 171.742188 168.652344 179.792969 179.304688 198.15625 179.304688 C 214.324219 179.304688 223.875 171.042969 223.875 155.050781 C 223.875 139.625 213.890625 129.722656 197.816406 129.722656 C 179.789062 129.722656 171.742188 140.167969 171.742188 154.464844 Z M 228.300781 223.585938 C 228.300781 203.679688 216.054688 193.425781 197.507812 193.425781 C 175.601562 193.425781 166.535156 206.964844 166.535156 223.273438 C 166.535156 240.105469 177.609375 253.882812 197.5625 253.882812 C 216.503906 253.882812 228.300781 242.367188 228.300781 223.585938 Z M 149.390625 223.835938 C 149.390625 202.195312 163.464844 190.957031 175.023438 186.328125 C 162.773438 180.507812 155.164062 169.503906 155.164062 154.535156 C 155.164062 132.097656 170.578125 115.839844 198.59375 115.839844 C 223.714844 115.839844 240.269531 130.953125 240.269531 154.011719 C 240.269531 170.355469 231.960938 180.84375 220.238281 185.566406 C 233.410156 190.140625 245.46875 203.011719 245.46875 223.328125 C 245.46875 251.0625 225.84375 267.867188 196.644531 267.867188 C 168.128906 267.867188 149.390625 249.660156 149.390625 223.835938 " fill-opacity="1" fill-rule="nonzero"/><g clip-path="url(#a510eb273a)"><path fill="#0c4066" d="M 331.191406 251.476562 C 307.320312 309.660156 249.597656 350.507812 182.664062 349.359375 C 97.605469 347.902344 28.601562 278.226562 27.917969 193.140625 C 27.21875 105.6875 98.140625 34.320312 185.414062 34.320312 C 250.390625 34.320312 306.292969 73.882812 330.332031 130.179688 C 331.617188 133.195312 334.566406 135.164062 337.84375 135.164062 L 337.855469 135.164062 C 343.710938 135.164062 347.679688 129.171875 345.378906 123.785156 C 318.636719 61.152344 256.164062 17.285156 183.730469 17.976562 C 87.910156 18.894531 10.371094 98.242188 11.578125 194.078125 C 12.773438 288.933594 90.292969 365.738281 185.414062 365.738281 C 258.011719 365.738281 320.347656 320.996094 346.332031 257.632812 C 348.539062 252.261719 344.574219 246.363281 338.769531 246.363281 C 335.433594 246.363281 332.457031 248.394531 331.191406 251.476562 " fill-opacity="1" fill-rule="nonzero"/></g><g clip-path="url(#b81c9a57e4)"><path fill="#0c4066" d="M 349.390625 183.242188 L 314.289062 183.242188 L 314.289062 148.136719 C 314.289062 143.984375 310.925781 140.613281 306.769531 140.613281 C 302.617188 140.613281 299.253906 143.984375 299.253906 148.136719 L 299.253906 183.242188 L 264.152344 183.242188 C 260 183.242188 256.632812 186.605469 256.632812 190.761719 C 256.632812 194.917969 260 198.285156 264.152344 198.285156 L 299.253906 198.285156 L 299.253906 233.390625 C 299.253906 237.542969 302.617188 240.910156 306.769531 240.910156 C 310.925781 240.910156 314.289062 237.542969 314.289062 233.390625 L 314.289062 198.285156 L 349.390625 198.285156 C 353.542969 198.285156 356.910156 194.917969 356.910156 190.761719 C 356.910156 186.605469 353.542969 183.242188 349.390625 183.242188 " fill-opacity="1" fill-rule="nonzero"/></g></svg>