<svg xmlns="http://www.w3.org/2000/svg" xmlns:xlink="http://www.w3.org/1999/xlink" width="500" zoomAndPan="magnify" viewBox="0 0 375 374.999991" height="500" preserveAspectRatio="xMidYMid meet" version="1.0"><defs><clipPath id="fc5371d24b"><path d="M 3.359375 60.9375 L 375 60.9375 L 375 311 L 3.359375 311 Z M 3.359375 60.9375 " clip-rule="nonzero"/></clipPath></defs><g clip-path="url(#fc5371d24b)"><path fill="#0c4066" d="M 10.941406 302.664062 L 367.273438 302.664062 L 367.273438 68.195312 L 10.941406 68.195312 Z M 374.855469 310.230469 L 3.359375 310.230469 L 3.359375 60.632812 L 374.855469 60.632812 Z M 374.855469 310.230469 " fill-opacity="1" fill-rule="nonzero"/></g><path fill="#0c4066" d="M 189.109375 74.933594 L 347.332031 185.429688 L 189.109375 295.929688 L 30.882812 185.429688 Z M 189.109375 84.152344 L 44.074219 185.429688 L 189.109375 286.710938 L 334.144531 185.429688 Z M 189.109375 84.152344 " fill-opacity="1" fill-rule="nonzero"/><path fill="#0c4066" d="M 261.132812 185.429688 C 261.132812 225.101562 228.871094 257.285156 189.109375 257.285156 C 149.34375 257.285156 117.085938 225.101562 117.085938 185.429688 C 117.085938 145.761719 149.34375 113.578125 189.109375 113.578125 C 228.871094 113.578125 261.132812 145.761719 261.132812 185.429688 Z M 253.550781 185.429688 C 253.550781 149.9375 224.6875 121.140625 189.109375 121.140625 C 153.53125 121.140625 124.664062 149.9375 124.664062 185.429688 C 124.664062 220.925781 153.53125 249.722656 189.109375 249.722656 C 224.6875 249.722656 253.550781 220.925781 253.550781 185.429688 Z M 253.550781 185.429688 " fill-opacity="1" fill-rule="nonzero"/><path fill="#0c4066" d="M 256.867188 193.347656 C 256.355469 197.761719 255.445312 202.054688 254.105469 206.191406 C 229.898438 182.871094 196.925781 168.53125 160.636719 168.53125 C 147.132812 168.53125 134.101562 170.5 121.78125 174.203125 C 122.535156 169.792969 123.679688 165.539062 125.21875 161.480469 C 136.550781 158.683594 148.398438 157.1875 160.636719 157.1875 C 197.519531 157.1875 231.203125 170.816406 256.867188 193.347656 Z M 256.867188 193.347656 " fill-opacity="1" fill-rule="nonzero"/></svg>