<svg xmlns="http://www.w3.org/2000/svg" xmlns:xlink="http://www.w3.org/1999/xlink" width="500" zoomAndPan="magnify" viewBox="0 0 375 374.999991" height="500" preserveAspectRatio="xMidYMid meet" version="1.0"><defs><clipPath id="822c469565"><path d="M 14.164062 174.070312 L 363 174.070312 L 363 336 L 14.164062 336 Z M 14.164062 174.070312 " clip-rule="nonzero"/></clipPath><clipPath id="91bb11ae92"><path d="M 154.890625 81.128906 L 327.390625 81.128906 L 327.390625 221.378906 L 154.890625 221.378906 Z M 154.890625 81.128906 " clip-rule="nonzero"/></clipPath></defs><g clip-path="url(#822c469565)"><path fill="#0c4066" d="M 273.992188 246.804688 C 287.054688 243.371094 312.292969 236.765625 328.285156 232.796875 C 359.992188 224.921875 374.921875 262.429688 350.164062 275.609375 C 345.019531 275.609375 246.074219 331.222656 209.316406 334.902344 C 183.644531 337.484375 122.707031 314.117188 89.175781 300.191406 L 89.175781 318.0625 C 64.171875 318.0625 39.179688 318.0625 14.183594 318.0625 L 14.183594 300.496094 L 71.625 300.496094 L 71.625 191.703125 L 14.183594 191.703125 L 14.183594 174.136719 C 39.179688 174.136719 64.171875 174.136719 89.175781 174.136719 L 89.175781 194.222656 L 139.972656 191.675781 L 185.8125 231.824219 C 197.390625 232.070312 236.199219 232.960938 253.429688 233.917969 C 262.554688 234.425781 269.839844 238.667969 273.992188 246.804688 Z M 89.175781 281.21875 C 119.257812 294.015625 183.65625 319.875 207.605469 317.476562 C 226.121094 315.628906 343.761719 263.789062 341.9375 260.105469 C 348.6875 256.519531 343.839844 246.972656 332.460938 249.808594 C 314.9375 254.15625 286.957031 261.507812 275.109375 264.628906 C 272.394531 273.121094 263.28125 281.835938 254.046875 281.835938 C 234.796875 284.339844 169.988281 286.9375 169.8125 286.9375 L 169.1875 269.441406 C 169.363281 269.441406 233.117188 266.875 251.738281 264.492188 C 258.90625 264.492188 262.90625 252.003906 252.472656 251.414062 C 228.515625 250.078125 203.273438 249.320312 179.238281 249.320312 L 133.808594 209.515625 L 89.175781 211.761719 Z M 89.175781 281.21875 " fill-opacity="1" fill-rule="nonzero"/></g><g clip-path="url(#91bb11ae92)"><path fill="#0c4066" d="M 219.660156 155.929688 L 294.371094 81.128906 L 327.371094 114.164062 L 219.660156 221.378906 L 214.054688 216.390625 L 154.90625 157.175781 L 187.90625 124.136719 Z M 187.90625 145.332031 L 176.078125 157.175781 L 219.660156 200.808594 L 306.203125 114.164062 L 294.371094 102.320312 L 219.660156 177.121094 Z M 187.90625 145.332031 " fill-opacity="1" fill-rule="evenodd"/></g></svg>