<svg xmlns="http://www.w3.org/2000/svg" xmlns:xlink="http://www.w3.org/1999/xlink" width="500" zoomAndPan="magnify" viewBox="0 0 375 374.999991" height="500" preserveAspectRatio="xMidYMid meet" version="1.0"><defs><clipPath id="035f72be8e"><path d="M 58 177 L 317 177 L 317 343.160156 L 58 343.160156 Z M 58 177 " clip-rule="nonzero"/></clipPath></defs><g clip-path="url(#035f72be8e)"><path fill="#0c4066" d="M 309.714844 343.1875 L 65.496094 343.1875 C 61.804688 343.1875 58.8125 340.199219 58.8125 336.511719 L 58.8125 184.429688 C 58.8125 180.742188 61.804688 177.738281 65.496094 177.738281 C 69.1875 177.738281 72.179688 180.742188 72.179688 184.429688 L 72.179688 329.832031 L 303.03125 329.832031 L 303.03125 184.429688 C 303.03125 180.742188 306.023438 177.738281 309.714844 177.738281 C 313.40625 177.738281 316.398438 180.742188 316.398438 184.429688 L 316.398438 336.511719 C 316.398438 340.199219 313.40625 343.1875 309.714844 343.1875 " fill-opacity="1" fill-rule="nonzero"/></g><path fill="#0c4066" d="M 348.023438 170.1875 C 346.582031 170.1875 345.136719 169.738281 343.921875 168.789062 L 187.605469 47.546875 L 31.289062 168.789062 C 28.363281 171.046875 24.171875 170.519531 21.902344 167.609375 C 19.644531 164.6875 20.171875 160.496094 23.085938 158.234375 L 183.503906 33.8125 C 185.925781 31.945312 189.285156 31.945312 191.707031 33.8125 L 352.125 158.234375 C 355.035156 160.496094 355.566406 164.6875 353.300781 167.609375 C 351.992188 169.304688 350.007812 170.1875 348.023438 170.1875 " fill-opacity="1" fill-rule="nonzero"/></svg>