<svg xmlns="http://www.w3.org/2000/svg" xmlns:xlink="http://www.w3.org/1999/xlink" width="500" zoomAndPan="magnify" viewBox="0 0 375 374.999991" height="500" preserveAspectRatio="xMidYMid meet" version="1.0"><defs><clipPath id="222c515c0d"><path d="M 40 85 L 215 85 L 215 357.214844 L 40 357.214844 Z M 40 85 " clip-rule="nonzero"/></clipPath><clipPath id="28a6f68e88"><path d="M 26.179688 17.464844 L 279 17.464844 L 279 205 L 26.179688 205 Z M 26.179688 17.464844 " clip-rule="nonzero"/></clipPath></defs><path fill="#0c4066" d="M 171.367188 283.359375 C 171.890625 283.359375 172.425781 283.261719 172.941406 283.050781 C 175.101562 282.179688 176.144531 279.730469 175.273438 277.570312 L 145.714844 204.371094 C 144.84375 202.214844 142.386719 201.175781 140.230469 202.046875 C 138.074219 202.914062 137.03125 205.367188 137.902344 207.523438 L 167.460938 280.722656 C 168.121094 282.363281 169.699219 283.359375 171.367188 283.359375 " fill-opacity="1" fill-rule="nonzero"/><g clip-path="url(#222c515c0d)"><path fill="#0c4066" d="M 153.273438 311.027344 C 152.058594 314.253906 152.175781 317.761719 153.597656 320.902344 L 157.414062 329.308594 C 158.839844 332.449219 161.402344 334.847656 164.632812 336.0625 C 167.5625 337.160156 170.722656 337.171875 173.632812 336.09375 L 178.066406 345.914062 C 181.242188 352.953125 188.273438 357.164062 195.597656 357.164062 C 198.109375 357.164062 200.652344 356.664062 203.085938 355.617188 C 212.488281 351.578125 217.035156 340.90625 213.445312 331.328125 L 166.34375 205.664062 C 165.527344 203.488281 163.097656 202.382812 160.917969 203.199219 C 158.742188 204.011719 157.636719 206.441406 158.453125 208.617188 L 205.554688 334.28125 C 207.566406 339.644531 205.019531 345.621094 199.753906 347.882812 C 194.421875 350.179688 188.136719 347.742188 185.746094 342.449219 L 179.589844 328.816406 C 179.132812 327.796875 178.285156 327 177.238281 326.609375 C 176.191406 326.21875 175.03125 326.25 174.011719 326.714844 L 171.03125 328.0625 C 169.9375 328.558594 168.71875 328.601562 167.597656 328.179688 C 166.472656 327.757812 165.582031 326.921875 165.085938 325.832031 L 161.273438 317.421875 C 160.777344 316.332031 160.734375 315.113281 161.15625 313.992188 C 161.578125 312.867188 162.414062 311.976562 163.511719 311.484375 L 166.535156 310.109375 C 168.648438 309.152344 169.589844 306.664062 168.632812 304.542969 L 159.382812 284.046875 C 158.921875 283.027344 158.074219 282.234375 157.027344 281.839844 C 155.980469 281.445312 154.816406 281.480469 153.800781 281.945312 L 150.734375 283.335938 C 148.480469 284.355469 145.8125 283.355469 144.789062 281.097656 L 140.972656 272.691406 C 140.480469 271.601562 140.4375 270.382812 140.863281 269.261719 C 141.285156 268.136719 142.117188 267.246094 143.210938 266.75 L 146.320312 265.339844 C 148.4375 264.382812 149.378906 261.890625 148.421875 259.773438 L 140.75 242.777344 C 139.824219 240.730469 137.453125 239.769531 135.363281 240.59375 L 130.984375 242.320312 C 128.683594 243.230469 126.070312 242.09375 125.160156 239.792969 L 121.769531 231.207031 C 121.328125 230.089844 121.351562 228.871094 121.828125 227.769531 C 122.304688 226.671875 123.183594 225.824219 124.296875 225.382812 L 127.484375 224.125 C 128.558594 223.703125 129.410156 222.859375 129.84375 221.792969 C 130.277344 220.726562 130.253906 219.527344 129.777344 218.476562 L 125.71875 209.480469 C 124.964844 207.816406 123.222656 206.8125 121.410156 207.027344 C 105.863281 208.769531 90.179688 204.886719 77.257812 196.085938 C 62.796875 186.238281 53.039062 171.355469 49.78125 154.171875 C 46.519531 136.988281 50.148438 119.566406 60 105.113281 C 63.015625 100.695312 66.550781 96.65625 70.507812 93.117188 C 72.242188 91.570312 72.390625 88.90625 70.839844 87.175781 C 69.289062 85.441406 66.625 85.292969 64.894531 86.84375 C 60.425781 90.835938 56.4375 95.386719 53.039062 100.371094 C 30.085938 134.046875 38.820312 180.105469 72.515625 203.046875 C 86.246094 212.398438 102.746094 216.832031 119.273438 215.675781 L 120.300781 217.949219 C 117.523438 219.292969 115.339844 221.558594 114.097656 224.417969 C 112.726562 227.582031 112.667969 231.089844 113.933594 234.296875 L 117.324219 242.886719 C 119.9375 249.503906 127.453125 252.765625 134.078125 250.15625 L 134.722656 249.902344 L 139.023438 259.429688 C 136.226562 260.902344 134.097656 263.3125 132.976562 266.296875 C 131.761719 269.523438 131.878906 273.03125 133.304688 276.171875 L 137.117188 284.578125 C 138.542969 287.71875 141.105469 290.117188 144.335938 291.328125 C 147.296875 292.445312 150.492188 292.441406 153.425781 291.332031 L 159.238281 304.207031 C 156.484375 305.683594 154.382812 308.078125 153.273438 311.027344 " fill-opacity="1" fill-rule="nonzero"/></g><path fill="#0c4066" d="M 226.960938 146.199219 C 225.621094 148.105469 226.074219 150.730469 227.976562 152.070312 L 333.164062 226.222656 C 337.84375 229.523438 339.105469 235.894531 336.03125 240.726562 C 332.917969 245.628906 326.347656 247.152344 321.390625 244.121094 L 308.628906 236.320312 C 307.671875 235.734375 306.523438 235.554688 305.441406 235.816406 C 304.351562 236.082031 303.410156 236.765625 302.832031 237.722656 L 301.128906 240.515625 C 300.503906 241.539062 299.519531 242.257812 298.351562 242.542969 C 297.191406 242.824219 295.980469 242.636719 294.960938 242.011719 L 287.066406 237.210938 C 286.042969 236.589844 285.324219 235.601562 285.042969 234.4375 C 284.757812 233.273438 284.945312 232.066406 285.570312 231.046875 L 287.296875 228.207031 C 288.503906 226.222656 287.878906 223.636719 285.898438 222.425781 L 266.703125 210.695312 C 265.75 210.109375 264.597656 209.929688 263.515625 210.191406 C 262.425781 210.457031 261.492188 211.140625 260.90625 212.09375 L 259.15625 214.96875 C 258.535156 215.992188 257.546875 216.710938 256.382812 216.996094 C 255.214844 217.273438 254.011719 217.09375 252.984375 216.46875 L 245.101562 211.667969 C 242.984375 210.378906 242.3125 207.613281 243.597656 205.5 L 245.375 202.578125 C 246.585938 200.597656 245.957031 198.007812 243.976562 196.800781 L 228.058594 187.070312 C 226.144531 185.898438 223.640625 186.4375 222.378906 188.296875 L 219.734375 192.1875 C 218.339844 194.234375 215.546875 194.769531 213.492188 193.375 L 205.855469 188.1875 C 203.808594 186.796875 203.273438 184 204.667969 181.953125 L 206.589844 179.117188 C 207.238281 178.164062 207.46875 176.992188 207.226562 175.863281 C 206.980469 174.738281 206.285156 173.761719 205.304688 173.160156 L 196.878906 168.011719 C 195.320312 167.058594 193.324219 167.222656 191.9375 168.410156 C 180.066406 178.601562 164.921875 184.214844 149.285156 184.214844 C 113.167969 184.214844 83.78125 154.84375 83.78125 118.742188 C 83.78125 96.222656 95.144531 75.550781 114.1875 63.453125 C 116.148438 62.203125 116.726562 59.597656 115.480469 57.636719 C 114.230469 55.675781 111.628906 55.097656 109.664062 56.34375 C 88.179688 70 75.355469 93.328125 75.355469 118.742188 C 75.355469 159.488281 108.519531 192.636719 149.285156 192.636719 C 165.902344 192.636719 182.03125 187.019531 195.046875 176.761719 L 197.171875 178.058594 C 195.632812 180.730469 195.105469 183.835938 195.695312 186.894531 C 196.339844 190.28125 198.269531 193.214844 201.117188 195.152344 L 208.761719 200.34375 C 214.648438 204.339844 222.695312 202.804688 226.699219 196.917969 L 227.089844 196.347656 L 236.011719 201.804688 C 232.847656 207.78125 234.859375 215.292969 240.71875 218.859375 L 248.605469 223.660156 C 251.550781 225.453125 255.019531 225.992188 258.371094 225.179688 C 261.445312 224.433594 264.085938 222.625 265.886719 220.0625 L 277.9375 227.433594 C 276.496094 230.203125 276.109375 233.363281 276.855469 236.425781 C 277.671875 239.777344 279.738281 242.609375 282.6875 244.402344 L 290.578125 249.203125 C 293.523438 251 296.988281 251.539062 300.34375 250.722656 C 303.386719 249.984375 306.003906 248.210938 307.800781 245.6875 L 316.992188 251.304688 C 320.078125 253.191406 323.511719 254.089844 326.914062 254.089844 C 333.269531 254.089844 339.515625 250.949219 343.144531 245.246094 C 348.632812 236.613281 346.378906 225.238281 338.019531 219.339844 L 232.832031 145.1875 C 230.925781 143.847656 228.300781 144.300781 226.960938 146.199219 " fill-opacity="1" fill-rule="nonzero"/><g clip-path="url(#28a6f68e88)"><path fill="#0c4066" d="M 43.199219 106.152344 C 45.058594 104.75 45.425781 102.109375 44.019531 100.253906 C 37.890625 92.152344 34.648438 82.476562 34.648438 72.285156 C 34.648438 46.6875 55.484375 25.859375 81.101562 25.859375 C 106.710938 25.859375 127.546875 46.6875 127.546875 72.285156 C 127.546875 74.644531 127.363281 76.972656 127.015625 79.269531 C 110.933594 79.496094 97.917969 92.632812 97.917969 108.761719 C 97.917969 125.03125 111.15625 138.265625 127.433594 138.265625 C 143.710938 138.265625 156.953125 125.03125 156.953125 108.761719 C 156.953125 100.75 153.792969 93.257812 148.058594 87.65625 C 146.394531 86.03125 143.726562 86.0625 142.101562 87.726562 C 140.476562 89.390625 140.507812 92.054688 142.171875 93.679688 C 146.269531 97.679688 148.527344 103.039062 148.527344 108.761719 C 148.527344 120.386719 139.0625 129.84375 127.433594 129.84375 C 115.800781 129.84375 106.339844 120.386719 106.339844 108.761719 C 106.339844 98.007812 114.441406 89.128906 124.859375 87.851562 C 122.78125 93.6875 119.546875 99.09375 115.261719 103.746094 C 113.683594 105.453125 113.792969 108.117188 115.5 109.695312 C 116.3125 110.441406 117.335938 110.808594 118.359375 110.808594 C 119.492188 110.808594 120.625 110.351562 121.453125 109.453125 C 130.816406 99.304688 135.972656 86.101562 135.972656 72.285156 C 135.972656 66.34375 135.007812 60.621094 133.25 55.257812 C 138.46875 53.945312 143.84375 53.269531 149.285156 53.269531 C 185.40625 53.269531 214.789062 82.640625 214.789062 118.742188 C 214.789062 125.046875 213.878906 131.308594 212.085938 137.367188 C 212.082031 137.382812 212.082031 137.394531 212.078125 137.414062 C 210.367188 143.179688 207.867188 148.683594 204.632812 153.78125 C 203.40625 155.714844 203.941406 158.269531 205.847656 159.539062 L 271.507812 203.398438 C 272.226562 203.878906 273.042969 204.109375 273.84375 204.109375 C 275.207031 204.109375 276.539062 203.453125 277.351562 202.238281 C 278.644531 200.304688 278.125 197.691406 276.191406 196.398438 L 213.855469 154.757812 C 216.738281 149.605469 218.988281 144.128906 220.5625 138.433594 C 220.585938 138.339844 220.589844 138.246094 220.609375 138.152344 C 222.332031 131.820312 223.214844 125.300781 223.214844 118.742188 C 223.214844 77.996094 190.050781 44.847656 149.285156 44.847656 C 142.722656 44.847656 136.242188 45.710938 129.972656 47.402344 C 120.882812 29.636719 102.394531 17.4375 81.101562 17.4375 C 50.839844 17.4375 26.222656 42.042969 26.222656 72.285156 C 26.222656 84.328125 30.054688 95.753906 37.300781 105.332031 C 38.699219 107.1875 41.34375 107.554688 43.199219 106.152344 " fill-opacity="1" fill-rule="nonzero"/></g></svg>