<svg xmlns="http://www.w3.org/2000/svg" xmlns:xlink="http://www.w3.org/1999/xlink" width="500" zoomAndPan="magnify" viewBox="0 0 375 374.999991" height="500" preserveAspectRatio="xMidYMid meet" version="1.0"><defs><clipPath id="9c83f17b4a"><path d="M 97.117188 27 L 277.867188 27 L 277.867188 348 L 97.117188 348 Z M 97.117188 27 " clip-rule="nonzero"/></clipPath></defs><g clip-path="url(#9c83f17b4a)"><path fill="#0c4066" d="M 204.382812 347.28125 L 167.46875 347.28125 C 163.96875 347.28125 161.101562 344.441406 161.101562 340.921875 L 161.101562 311.183594 C 138.078125 309.367188 115.226562 303.160156 100.296875 294.539062 C 97.839844 293.101562 96.617188 290.214844 97.320312 287.453125 L 108.636719 243.460938 C 109.132812 241.554688 110.480469 239.988281 112.289062 239.1875 C 114.082031 238.410156 116.171875 238.515625 117.863281 239.453125 C 128.605469 245.34375 150.601562 255.199219 177.269531 255.199219 C 184.257812 255.199219 207.054688 253.980469 207.054688 238.257812 C 207.054688 229.445312 200.984375 221.546875 171.464844 211.578125 C 137.925781 200.296875 99.417969 181.601562 99.417969 136.742188 C 99.417969 101.425781 123.628906 74.183594 162.988281 64.683594 L 162.988281 34.09375 C 162.988281 30.585938 165.851562 27.734375 169.351562 27.734375 L 206.253906 27.734375 C 209.753906 27.734375 212.617188 30.585938 212.617188 34.09375 L 212.617188 61.183594 C 232.230469 62.632812 248.957031 66.804688 263.609375 73.878906 C 266.34375 75.199219 267.757812 78.253906 267.019531 81.191406 L 256.085938 123.667969 C 255.613281 125.460938 254.394531 126.964844 252.726562 127.777344 C 251.082031 128.578125 249.148438 128.65625 247.429688 127.941406 L 244.542969 126.695312 C 234.394531 122.296875 219.058594 115.667969 195.738281 115.667969 C 186.015625 115.667969 169.722656 117.578125 169.722656 130.347656 C 169.722656 138.433594 180.476562 145.339844 210.757812 156.75 C 257.675781 173.296875 277.738281 196.097656 277.738281 233.007812 C 277.738281 269.863281 251.632812 298.757812 210.757812 307.800781 L 210.757812 340.921875 C 210.746094 344.441406 207.882812 347.28125 204.382812 347.28125 Z M 173.84375 334.5625 L 198.003906 334.5625 L 198.003906 302.5625 C 198.003906 299.484375 200.21875 296.828125 203.273438 296.304688 C 241.332031 289.679688 264.984375 265.425781 264.984375 233.007812 C 264.984375 201.582031 248.550781 183.546875 206.378906 168.691406 C 172.863281 156.074219 156.964844 147.132812 156.964844 130.347656 C 156.964844 123.910156 159.78125 102.949219 195.714844 102.949219 C 218.585938 102.949219 234.867188 108.828125 245.558594 113.304688 L 253.3125 83.1875 C 239.804688 77.515625 224.25 74.347656 205.921875 73.519531 C 202.5625 73.382812 199.875 70.582031 199.875 67.1875 L 199.875 40.453125 L 175.714844 40.453125 L 175.714844 69.820312 C 175.714844 72.859375 173.550781 75.46875 170.585938 76.050781 C 133.976562 83.226562 112.136719 105.914062 112.136719 136.757812 C 112.136719 165.84375 131.101562 184.589844 175.511719 199.546875 C 202.089844 208.484375 219.769531 218.496094 219.769531 238.273438 C 219.769531 256.574219 203.492188 267.929688 177.257812 267.929688 C 152.878906 267.929688 132.121094 260.527344 118.996094 254.296875 L 110.886719 285.773438 C 125.460938 292.910156 147.113281 297.945312 167.773438 298.863281 C 171.160156 299.015625 173.859375 301.785156 173.859375 305.195312 L 173.859375 334.5625 Z M 173.84375 334.5625 " fill-opacity="1" fill-rule="nonzero"/></g></svg>