<svg width="44" height="36" viewBox="0 0 44 36" fill="none" xmlns="http://www.w3.org/2000/svg">
<path d="M43.0165 36H1.14084C0.835955 36 0.589844 35.7539 0.589844 35.449V0.55102C0.589844 0.246122 0.835955 0 1.14084 0H43.0165C43.3213 0 43.5675 0.246122 43.5675 0.55102V35.449C43.5675 35.7539 43.3213 36 43.0165 36ZM1.69183 34.898H42.4655V1.10204H1.69183V34.898Z" fill="white"/>
<path d="M22.0803 33.7076C21.9554 33.7076 21.8305 33.6635 21.7276 33.5791L3.54113 18.4223C3.41624 18.3195 3.34277 18.1615 3.34277 17.9999C3.34277 17.8382 3.41624 17.6803 3.54113 17.5774L21.7276 2.42068C21.9334 2.2517 22.2272 2.2517 22.4329 2.42068L40.6194 17.5774C40.7443 17.6839 40.8178 17.8382 40.8178 17.9999C40.8178 18.1615 40.7443 18.3195 40.6194 18.4223L22.4329 33.5791C22.3301 33.6635 22.2052 33.7076 22.0803 33.7076ZM4.75332 17.9999L22.0803 32.4366L39.4072 17.9999L22.0803 3.55946L4.75332 17.9999Z" fill="white"/>
<path d="M28.9738 21.9339C28.9702 21.9339 28.9665 21.9339 28.9592 21.9339C28.7461 21.9302 28.5514 21.798 28.4669 21.5996C26.8323 17.8122 23.1113 15.3657 18.9898 15.3657C17.594 15.3657 16.2422 15.6412 14.9676 16.1812C14.7692 16.2657 14.5415 16.2253 14.3835 16.082C14.2255 15.9388 14.1631 15.7147 14.2292 15.509C15.3202 12.0743 18.4756 9.76367 22.0791 9.76367C26.6229 9.76367 30.3146 13.4592 30.3146 17.9996C30.3146 19.2596 30.0281 20.4792 29.4661 21.6253C29.3742 21.8163 29.1832 21.9339 28.9738 21.9339ZM18.9898 14.2637C23.126 14.2637 26.8984 16.4898 28.9151 20.031C29.1134 19.3735 29.2126 18.6902 29.2126 17.9959C29.2126 14.0616 26.0132 10.862 22.0791 10.862C19.3608 10.862 16.9364 12.3792 15.7316 14.7339C16.7822 14.4216 17.8768 14.2637 18.9898 14.2637Z" fill="white"/>
<path d="M22.0788 26.2359C18.1263 26.2359 14.7248 23.4184 13.9902 19.5318C13.9498 19.3225 14.0379 19.1057 14.2106 18.9808C15.6174 17.9743 17.2704 17.4453 18.9895 17.4453C22.942 17.4453 26.3435 20.2629 27.0781 24.1494C27.1185 24.3588 27.0304 24.5755 26.8577 24.7004C25.4509 25.7069 23.7979 26.2359 22.0788 26.2359ZM15.1473 19.6825C15.915 22.8637 18.7728 25.1376 22.0788 25.1376C23.4489 25.1376 24.7713 24.7482 25.9211 24.0061C25.1533 20.8249 22.2955 18.551 18.9895 18.551C17.6194 18.551 16.3007 18.9404 15.1473 19.6825Z" fill="white"/>
<path d="M26.5384 24.8029C26.4687 24.8029 26.3989 24.7882 26.3327 24.7624C26.1564 24.6927 26.0315 24.5384 25.9948 24.3547C25.3593 20.9898 22.4133 18.5506 18.9898 18.5506C17.5021 18.5506 16.0695 19.0098 14.85 19.8804C14.6957 19.9906 14.4974 20.0127 14.3247 19.9429C14.1521 19.8731 14.0235 19.7188 13.9868 19.5351C13.8876 19.0135 13.8398 18.4992 13.8398 17.9996C13.8398 17.151 13.9684 16.3135 14.2255 15.5053C14.2733 15.351 14.3872 15.2261 14.5341 15.1637C15.9446 14.5649 17.4434 14.2637 18.9861 14.2637C23.5484 14.2637 27.6661 16.971 29.4734 21.1624C29.5359 21.3094 29.5322 21.4784 29.4624 21.6253C28.86 22.8449 27.96 23.9102 26.8543 24.7C26.7625 24.7698 26.6523 24.8029 26.5384 24.8029ZM18.9898 17.4486C22.6411 17.4486 25.8222 19.8547 26.8654 23.282C27.4678 22.7347 27.9747 22.0845 28.3604 21.3682C26.6744 17.7167 23.0231 15.3694 18.9898 15.3694C17.6821 15.3694 16.4112 15.6118 15.2063 16.0857C15.0337 16.7102 14.9455 17.3531 14.9455 18.0033C14.9455 18.1686 14.9529 18.3375 14.9639 18.5102C16.1908 17.8122 17.5682 17.4486 18.9898 17.4486Z" fill="white"/>
</svg>
