<svg xmlns="http://www.w3.org/2000/svg" xmlns:xlink="http://www.w3.org/1999/xlink" width="500" zoomAndPan="magnify" viewBox="0 0 375 374.999991" height="500" preserveAspectRatio="xMidYMid meet" version="1.0"><defs><clipPath id="d60bd9f437"><path d="M 17.5625 30.027344 L 357.3125 30.027344 L 357.3125 345 L 17.5625 345 Z M 17.5625 30.027344 " clip-rule="nonzero"/></clipPath></defs><g clip-path="url(#d60bd9f437)"><path fill="#0c4066" d="M 174.5 344.351562 C 88.070312 344.351562 17.75 274.003906 17.75 187.527344 C 17.75 101.042969 88.070312 30.695312 174.5 30.695312 C 221.421875 30.695312 265.109375 51.332031 295.082031 87.488281 L 319.773438 62.785156 C 323.15625 59.398438 327.679688 57.527344 332.496094 57.527344 C 337.320312 57.527344 341.835938 59.394531 345.222656 62.785156 L 352.28125 69.851562 C 355.675781 73.242188 357.542969 77.757812 357.542969 82.582031 C 357.542969 87.402344 355.667969 91.925781 352.28125 95.3125 L 319.539062 128.085938 C 327.308594 146.988281 331.246094 166.972656 331.246094 187.523438 C 331.246094 274.003906 260.929688 344.351562 174.5 344.351562 Z M 174.5 42.636719 C 94.652344 42.636719 29.683594 107.628906 29.683594 187.527344 C 29.683594 267.417969 94.652344 332.417969 174.5 332.417969 C 254.351562 332.417969 319.3125 267.417969 319.3125 187.527344 C 319.3125 170.230469 316.296875 153.363281 310.332031 137.292969 L 185.589844 262.09375 C 182.203125 265.492188 177.664062 267.367188 172.828125 267.367188 C 168.019531 267.367188 163.503906 265.511719 160.117188 262.148438 L 68.023438 170.75 C 64.621094 167.375 62.738281 162.867188 62.71875 158.046875 C 62.714844 153.226562 64.570312 148.703125 67.96875 145.304688 L 75.03125 138.246094 C 78.417969 134.855469 82.9375 132.988281 87.753906 132.988281 C 92.570312 132.988281 97.09375 134.851562 100.476562 138.246094 L 165.316406 203.113281 C 169.089844 206.886719 175.75 206.890625 179.527344 203.113281 L 286.609375 95.976562 C 258.902344 62.027344 218.242188 42.636719 174.5 42.636719 Z M 87.753906 140.945312 C 85.066406 140.945312 82.539062 141.988281 80.652344 143.875 L 73.589844 150.933594 C 71.710938 152.824219 70.671875 155.339844 70.679688 158.03125 C 70.6875 160.710938 71.726562 163.226562 73.625 165.101562 L 165.722656 256.5 C 169.511719 260.265625 176.199219 260.25 179.964844 256.472656 L 313.179688 123.191406 L 313.179688 123.195312 L 346.65625 89.691406 C 348.546875 87.804688 349.582031 85.28125 349.582031 82.585938 C 349.582031 79.890625 348.546875 77.363281 346.65625 75.476562 L 339.59375 68.417969 C 335.828125 64.640625 329.160156 64.640625 325.390625 68.417969 L 294.402344 99.421875 L 294.394531 99.421875 L 185.144531 208.738281 C 181.761719 212.125 177.242188 213.996094 172.417969 213.996094 C 167.601562 213.996094 163.078125 212.128906 159.691406 208.738281 L 94.855469 143.875 C 92.96875 141.984375 90.445312 140.945312 87.753906 140.945312 Z M 87.753906 140.945312 " fill-opacity="1" fill-rule="nonzero"/></g></svg>